<svg xmlns="http://www.w3.org/2000/svg" viewBox="0 0 1200 630" role="img" aria-labelledby="title desc">
  <title id="title">Kerros</title>
  <desc id="desc">Share state between React components without Context-wide rerenders</desc>
  <defs>
    <linearGradient id="background" x1="68" y1="30" x2="1118" y2="610" gradientUnits="userSpaceOnUse">
      <stop stop-color="#120d1f"/>
      <stop offset=".58" stop-color="#21133d"/>
      <stop offset="1" stop-color="#10265e"/>
    </linearGradient>
    <linearGradient id="brand" x1="162" y1="135" x2="422" y2="456" gradientUnits="userSpaceOnUse">
      <stop stop-color="#a78bfa"/>
      <stop offset=".56" stop-color="#7c3aed"/>
      <stop offset="1" stop-color="#3b82f6"/>
    </linearGradient>
    <radialGradient id="glow" cx="0" cy="0" r="1" gradientTransform="translate(931 105) rotate(139) scale(570 391)" gradientUnits="userSpaceOnUse">
      <stop stop-color="#3b82f6" stop-opacity=".34"/>
      <stop offset="1" stop-color="#3b82f6" stop-opacity="0"/>
    </radialGradient>
    <filter id="shadow" x="88" y="83" width="388" height="430" filterUnits="userSpaceOnUse">
      <feDropShadow dx="0" dy="28" stdDeviation="24" flood-color="#000" flood-opacity=".3"/>
    </filter>
  </defs>
  <rect width="1200" height="630" rx="36" fill="url(#background)"/>
  <rect width="1200" height="630" rx="36" fill="url(#glow)"/>
  <g opacity=".18" stroke="#c4b5fd">
    <path d="M0 112h1200M0 518h1200M92 0v630M1108 0v630"/>
  </g>
  <g filter="url(#shadow)">
    <rect x="124" y="119" width="316" height="316" rx="78" fill="url(#brand)"/>
    <path d="m282 173 101 58-101 58-101-58 101-58Z" fill="#fff"/>
    <path d="m181 274 101 58 101-58M181 326l101 58 101-58" fill="none" stroke="#fff" stroke-width="22" stroke-linecap="round" stroke-linejoin="round" opacity=".7"/>
  </g>
  <text x="520" y="249" fill="#fff" font-family="Inter, ui-sans-serif, system-ui, sans-serif" font-size="112" font-weight="800" letter-spacing="-6">Kerros</text>
  <text x="526" y="320" fill="#ddd6fe" font-family="Inter, ui-sans-serif, system-ui, sans-serif" font-size="30" font-weight="550">Share state between React components</text>
  <text x="526" y="368" fill="#a5b4fc" font-family="Inter, ui-sans-serif, system-ui, sans-serif" font-size="22">Context scope without Context-wide rerenders.</text>
  <g font-family="Inter, ui-sans-serif, system-ui, sans-serif" font-size="18" font-weight="650">
    <rect x="526" y="418" width="164" height="48" rx="24" fill="#ffffff14" stroke="#c4b5fd55"/>
    <text x="558" y="448" fill="#ede9fe">React 17–19</text>
    <rect x="708" y="418" width="184" height="48" rx="24" fill="#ffffff14" stroke="#c4b5fd55"/>
    <text x="744" y="448" fill="#ede9fe">Hook-native</text>
    <rect x="910" y="418" width="138" height="48" rx="24" fill="#ffffff14" stroke="#c4b5fd55"/>
    <text x="942" y="448" fill="#ede9fe">~1 kB</text>
  </g>
</svg>
